<svg width="894" height="179" viewBox="0 0 894 179" fill="none" xmlns="http://www.w3.org/2000/svg">
<path d="M0.078125 175.2V3.6H21.6781V155.28H111.678V175.2H0.078125Z" fill="#1B1B1B"/>
<path d="M129.369 175.2V3.6H250.569V22.56H150.969V76.8H241.449V95.04H150.969V155.28H253.449V175.2H129.369Z" fill="#1B1B1B"/>
<path d="M405.95 175.2L399.71 152.64H399.23C386.75 170.08 368.91 178.8 345.71 178.8C321.71 178.8 302.27 170.56 287.39 154.08C272.51 137.6 265.07 116.24 265.07 90C265.07 63.76 272.27 42.24 286.67 25.44C301.23 8.48 321.55 0 347.63 0C367.15 0 382.91 4.96 394.91 14.88C407.07 24.64 414.59 38.08 417.47 55.2H395.15C392.75 43.52 387.47 34.56 379.31 28.32C371.15 21.92 360.43 18.72 347.15 18.72C327.31 18.72 312.35 25.28 302.27 38.4C292.19 51.52 287.15 68.72 287.15 90C287.15 110.96 292.67 127.92 303.71 140.88C314.75 153.68 328.99 160.08 346.43 160.08C363.23 160.08 376.03 155.12 384.83 145.2C393.79 135.28 398.27 122.64 398.27 107.28V103.2H346.67V84.48H419.87V175.2H405.95Z" fill="#1B1B1B"/>
<path d="M446.075 175.2V3.6H567.275V22.56H467.675V76.8H558.155V95.04H467.675V155.28H570.155V175.2H446.075Z" fill="#1B1B1B"/>
<path d="M591.772 175.2V3.6H614.572L692.812 122.88L705.292 144.96H705.772V3.6H725.932V175.2H703.852L625.132 55.68L612.412 34.32H611.932V175.2H591.772Z" fill="#1B1B1B"/>
<path d="M754.578 175.2V3.6H816.978C842.098 3.6 861.058 11.36 873.858 26.88C886.658 42.4 893.058 63.44 893.058 90C893.058 116.4 886.418 137.2 873.138 152.4C859.858 167.6 840.578 175.2 815.298 175.2H754.578ZM776.178 156.24H814.578C852.178 156.24 870.978 134.16 870.978 90C870.978 44.88 852.738 22.32 816.258 22.32H776.178V156.24Z" fill="#1B1B1B"/>
</svg>
