<svg width="118" height="168" viewBox="0 0 118 168" fill="none" xmlns="http://www.w3.org/2000/svg">
<path d="M0 168C0.48 157.92 2.16 149.04 5.04 141.36C8.08 133.68 13.12 126.64 20.16 120.24C27.36 113.84 32.96 109.28 36.96 106.56C41.12 103.68 48.32 99.28 58.56 93.36C58.88 93.04 59.12 92.88 59.28 92.88C59.44 92.72 59.68 92.56 60 92.4C60.32 92.24 60.56 92.08 60.72 91.92C61.04 91.76 61.36 91.6 61.68 91.44C74.32 84.08 83.28 77.76 88.56 72.48C93.84 67.04 96.48 59.76 96.48 50.64C96.48 40.56 93.2 32.4 86.64 26.16C80.24 19.92 71.6 16.8 60.72 16.8C49.68 16.8 40.96 20.24 34.56 27.12C28.32 33.84 25.2 44.8 25.2 60H4.08C4.08 40.64 9.28 25.76 19.68 15.36C30.08 5.12 44.32 0 62.4 0C78.88 0 92.16 4.72 102.24 14.16C112.32 23.6 117.36 35.68 117.36 50.4C117.36 56.32 116.48 61.76 114.72 66.72C112.96 71.68 111.12 75.68 109.2 78.72C107.28 81.76 103.76 85.28 98.64 89.28C93.52 93.12 89.68 95.76 87.12 97.2C84.72 98.64 79.92 101.36 72.72 105.36C71.28 106.16 70.16 106.8 69.36 107.28C61.68 111.6 55.28 115.36 50.16 118.56C45.2 121.76 40 126.24 34.56 132C29.12 137.6 25.68 143.2 24.24 148.8H114V168H0Z" fill="#1B1B1B"/>
</svg>
