<svg width="48" height="22" viewBox="0 0 48 22" fill="none" xmlns="http://www.w3.org/2000/svg">
<path fill-rule="evenodd" clip-rule="evenodd" d="M9.59965 1.39966C9.59965 0.8316 8.88331 0.371094 7.99965 0.371094C7.116 0.371094 6.39966 0.8316 6.39966 1.39966V20.5996C6.39966 21.1677 7.116 21.6282 7.99965 21.6282C8.88331 21.6282 9.59965 21.1677 9.59965 20.5996V1.39966ZM3.19999 7.57154C3.19999 7.00347 2.48365 6.54297 1.6 6.54297C0.716343 6.54297 0 7.00347 0 7.57154V14.4287C0 14.9967 0.716343 15.4572 1.6 15.4572C2.48365 15.4572 3.19999 14.9967 3.19999 14.4287V7.57154ZM14.4 3.80859C15.2837 3.80859 16 4.2691 16 4.83716V17.18C16 17.748 15.2837 18.2086 14.4 18.2086C13.5164 18.2086 12.8 17.748 12.8 17.18V4.83716C12.8 4.2691 13.5164 3.80859 14.4 3.80859ZM22.3998 8.94263C22.3998 8.37457 21.6835 7.91406 20.7998 7.91406C19.9162 7.91406 19.1998 8.37457 19.1998 8.94263V13.0569C19.1998 13.625 19.9162 14.0855 20.7998 14.0855C21.6835 14.0855 22.3998 13.625 22.3998 13.0569V8.94263ZM27.2002 0.371094C28.0839 0.371094 28.8002 0.8316 28.8002 1.39966V20.5996C28.8002 21.1677 28.0839 21.6282 27.2002 21.6282C26.3166 21.6282 25.6002 21.1677 25.6002 20.5996V1.39966C25.6002 0.8316 26.3166 0.371094 27.2002 0.371094ZM35.1997 4.83716C35.1997 4.2691 34.4834 3.80859 33.5998 3.80859C32.7161 3.80859 31.9998 4.2691 31.9998 4.83716V17.18C31.9998 17.748 32.7161 18.2086 33.5998 18.2086C34.4834 18.2086 35.1997 17.748 35.1997 17.18V4.83716ZM39.9997 6.54297C40.8833 6.54297 41.5997 7.00347 41.5997 7.57154V14.4287C41.5997 14.9967 40.8833 15.4572 39.9997 15.4572C39.116 15.4572 38.3997 14.9967 38.3997 14.4287V7.57154C38.3997 7.00347 39.116 6.54297 39.9997 6.54297ZM48 8.94263C48 8.37457 47.2837 7.91406 46.4 7.91406C45.5164 7.91406 44.8 8.37457 44.8 8.94263V13.0569C44.8 13.625 45.5164 14.0855 46.4 14.0855C47.2837 14.0855 48 13.625 48 13.0569V8.94263Z" fill="white"/>
</svg>
